# xmcd
#
# Track frame offsets:
#	150
#	16705
#	24880
#	38442
#
# Disc length: 684 seconds
#
# Revision: 1
# Processed by: cddbd v1.5.1PL0 Copyright (c) Steve Scherf et al.
# Submitted via: CDex 1.50Beta5
#
DISCID=1702aa04
DTITLE=Highway61 - レット・イット・シャイン
DYEAR=2002
DGENRE=Pop
TTITLE0=レット・イット・シャイン
TTITLE1=さよなら学校
TTITLE2=銀色バス
TTITLE3=ドミノ
EXTD=
EXTT0=
EXTT1=
EXTT2=
EXTT3=
PLAYORDER=
